<?xml version="1.0" standalone="no"?>
<!DOCTYPE svg PUBLIC "-//W3C//DTD SVG 20010904//EN"
 "http://www.w3.org/TR/2001/REC-SVG-20010904/DTD/svg10.dtd">
<svg version="1.0" xmlns="http://www.w3.org/2000/svg"
 width="512.000000pt" height="512.000000pt" viewBox="0 0 512.000000 512.000000"
 preserveAspectRatio="xMidYMid meet">

<g transform="translate(0.000000,512.000000) scale(0.100000,-0.100000)"
fill="#209CEE" stroke="none">
<path d="M0 2560 l0 -2560 2560 0 2560 0 0 2560 0 2560 -2560 0 -2560 0 0
-2560z m3928 1646 c31 -16 47 -49 44 -89 0 -10 -19 -59 -42 -110 -23 -51 -51
-114 -63 -141 -26 -60 -83 -109 -143 -126 -46 -13 -272 -11 -766 6 l-186 7 -6
-44 c-25 -193 -47 -332 -116 -734 -147 -855 -197 -1250 -215 -1710 -4 -102
-12 -175 -21 -202 -40 -111 -196 -175 -431 -177 -129 -1 -156 11 -180 79 -21
61 -32 284 -22 451 36 610 294 1709 527 2241 l40 93 -61 -6 c-192 -18 -336
-50 -737 -167 -244 -70 -330 -85 -370 -64 -34 17 -36 49 -6 110 101 206 432
439 768 541 219 66 211 66 1129 62 739 -3 829 -5 857 -20z"/>
</g>
</svg>
